# xmcd CD database file
#
# Track frame offsets:
#	150
#	38114
#	72961
#	99011
#	135880
#	169701
#	196257
#	214921
#	270036
#	295593
#
# Disc length: 4423 seconds
#
# Revision: 0
# Processed by: cddbd v1.5.2PL0 Copyright (c) Steve Scherf et al.
# Submitted via: CDex 2.13
#
DISCID=7c11450a
DTITLE=Mlynarski-Masecki Jazz Band  - live im Jazz Dock Club, Prag
DYEAR=2018
DGENRE=Jazz
TTITLE0=How Do You Do, Mr. Brown (Paul Abraham)
TTITLE1=Czy ty wiesz, mala miss (Sholom Secunda)
TTITLE2=Czarna kawa (J. C. Johnson)
TTITLE3=Abdul Bej (Fanny Gordon)
TTITLE4=New York Baby (Fanny Gordon)
TTITLE5=Nikodem (Henryk Wars)
TTITLE6=Jadzia (Fred Scher)
TTITLE7=Czy pani tanczy rumbe (Henryk Wars)
TTITLE8=Noc w Wielkim Miescie (Stanislaw (Shmuel) Ferszko)
TTITLE9=Dzisiaj tak mi jakos dobrze jest (Nicholas Brodszky)
EXTD=YEAR: 2018
EXTT0=
EXTT1=
EXTT2=
EXTT3=
EXTT4=
EXTT5=
EXTT6=
EXTT7=
EXTT8=
EXTT9=
PLAYORDER=
